<svg width="16" height="17" viewBox="0 0 16 17" fill="none" xmlns="http://www.w3.org/2000/svg">
<path d="M8.17599 9.63207L11.833 5.97507C11.8995 5.90198 11.9801 5.84299 12.0699 5.80159C12.1596 5.76018 12.2568 5.73721 12.3556 5.73403C12.4544 5.73084 12.5528 5.74751 12.6451 5.78305C12.7373 5.81859 12.8215 5.87227 12.8926 5.94092C12.9637 6.00957 13.0203 6.09179 13.0591 6.18272C13.0979 6.27364 13.1181 6.37143 13.1184 6.47028C13.1187 6.56913 13.0992 6.66704 13.061 6.75821C13.0228 6.84938 12.9667 6.93197 12.896 7.00107L12.878 7.01907L8.69899 11.1991C8.5604 11.3376 8.37246 11.4155 8.17649 11.4155C7.98052 11.4155 7.79257 11.3376 7.65399 11.1991L3.47499 7.02007C3.40519 6.95264 3.34936 6.87212 3.31068 6.7831C3.272 6.69409 3.25123 6.59834 3.24956 6.5013C3.24789 6.40426 3.26535 6.30784 3.30094 6.21755C3.33653 6.12726 3.38955 6.04487 3.45699 5.97507C3.52442 5.90527 3.60494 5.84944 3.69395 5.81076C3.78296 5.77208 3.87872 5.75132 3.97576 5.74964C4.0728 5.74797 4.16921 5.76543 4.2595 5.80102C4.34979 5.83661 4.43219 5.88964 4.50199 5.95707L4.51999 5.97507L8.17599 9.63207Z" fill="#3C3C43" stroke="#3C3C43" stroke-width="0.5"/>
</svg>
